<mxfile host="app.diagrams.net" agent="Mozilla/5.0 (Windows NT 10.0; Win64; x64) AppleWebKit/537.36 (KHTML, like Gecko) Chrome/133.0.0.0 Safari/537.36" version="26.0.16">
  <diagram name="PÃ¡gina-1" id="Pj-9XCwarDBHbh6-0hCe">
    <mxGraphModel dx="1434" dy="772" grid="1" gridSize="10" guides="1" tooltips="1" connect="1" arrows="1" fold="1" page="1" pageScale="1" pageWidth="827" pageHeight="1169" math="0" shadow="0">
      <root>
        <mxCell id="0" />
        <mxCell id="1" parent="0" />
        <mxCell id="y9mw7ibEQ07_qhfKj17H-6" value="" style="curved=1;endArrow=classic;html=1;rounded=0;" edge="1" parent="1">
          <mxGeometry width="50" height="50" relative="1" as="geometry">
            <mxPoint x="420" y="340" as="sourcePoint" />
            <mxPoint x="470" y="290" as="targetPoint" />
            <Array as="points">
              <mxPoint x="380" y="360" />
              <mxPoint x="380" y="390" />
              <mxPoint x="430" y="380" />
              <mxPoint x="500" y="440" />
              <mxPoint x="470" y="340" />
              <mxPoint x="470" y="570" />
              <mxPoint x="600" y="420" />
              <mxPoint x="620" y="490" />
              <mxPoint x="650" y="440" />
              <mxPoint x="680" y="530" />
              <mxPoint x="660" y="540" />
              <mxPoint x="800" y="590" />
              <mxPoint x="780" y="640" />
              <mxPoint x="680" y="550" />
              <mxPoint x="540" y="560" />
              <mxPoint x="470" y="480" />
              <mxPoint x="330" y="450" />
              <mxPoint x="430" y="410" />
              <mxPoint x="520" y="450" />
              <mxPoint x="620" y="480" />
              <mxPoint x="720" y="570" />
              <mxPoint x="590" y="540" />
              <mxPoint x="610" y="510" />
              <mxPoint x="530" y="470" />
              <mxPoint x="490" y="480" />
              <mxPoint x="440" y="410" />
              <mxPoint x="310" y="410" />
              <mxPoint x="390" y="310" />
              <mxPoint x="330" y="370" />
              <mxPoint x="220" y="310" />
              <mxPoint x="340" y="250" />
              <mxPoint x="320" y="330" />
              <mxPoint x="420" y="290" />
              <mxPoint x="370" y="260" />
              <mxPoint x="470" y="240" />
              <mxPoint x="430" y="170" />
              <mxPoint x="530" y="110" />
              <mxPoint x="500" y="220" />
              <mxPoint x="610" y="180" />
              <mxPoint x="600" y="220" />
              <mxPoint x="750" y="160" />
              <mxPoint x="770" y="260" />
              <mxPoint x="770" y="130" />
              <mxPoint x="890" y="90" />
              <mxPoint x="840" y="220" />
              <mxPoint x="740" y="190" />
              <mxPoint x="870" y="230" />
              <mxPoint x="800" y="190" />
              <mxPoint x="680" y="220" />
              <mxPoint x="780" y="230" />
              <mxPoint x="730" y="280" />
              <mxPoint x="670" y="330" />
              <mxPoint x="610" y="300" />
              <mxPoint x="600" y="230" />
              <mxPoint x="730" y="260" />
              <mxPoint x="530" y="250" />
            </Array>
          </mxGeometry>
        </mxCell>
      </root>
    </mxGraphModel>
  </diagram>
</mxfile>
